<svg viewBox="0 0 1022 224" xmlns="http://www.w3.org/2000/svg"><defs><linearGradient x1="49.397%" y1="95.667%" x2="50.467%" y2="5.242%" id="a"><stop stop-color="#FFE832" offset="0%"/><stop stop-color="#FFD000" offset="99.701%"/><stop stop-color="#FFD000" offset="100%"/></linearGradient></defs><g fill="none"><path d="M124.794 221.673c-7.788-4.686-11.874-8.14-33.352-16.544a373.36 373.36 0 01-17.944-7.55c-8.206-3.242-16.585-7.349-25.531-12.567-25.159-14.682-42.03-39.51-46.292-68.12-2.657-17.82-.138-35.815 7.28-52.037a66.18 66.18 0 01.974-2.022l.056-.115a71.083 71.083 0 011.77-3.52 48.561 48.561 0 012.463-4.045C31.377 27.827 64.681 8.27 103.698 2.7c38.975-5.56 76.388 3.875 100.5 25.263a47.78 47.78 0 013.497 3.176 77.132 77.132 0 012.888 3.099l.083.093c.432.466.863.943 1.284 1.426 11.729 13.545 19.207 30.15 21.647 48.045 3.908 28.657-5.344 57.212-25.385 78.339-6.366 6.706-12.54 12.414-18.747 17.419a367.644 367.644 0 01-17.153 14.03c-18.272 14.075-21.226 18.535-27.395 25.211-1.86 2.012-5.1 4.867-9.48 5.492v.001h-.003c-.604.086-1.201.126-1.785.126-3.647 0-6.831-1.53-8.855-2.747M109.369 43.26c-28.091 4.008-50.974 17.71-61.034 34.424a8.997 8.997 0 00-.696 1.059c-.38.697-.702 1.414-1.046 2.124-.171.346-.352.69-.511 1.037-4.113 8.989-5.514 18.927-4.015 28.97 1.834 12.314 7.769 23.33 16.699 31.59a62.327 62.327 0 0013.078 10.176c5.813 3.392 11.258 6.058 16.589 8.166a242.956 242.956 0 0011.658 4.906c10.19 3.986 14.354 6.258 17.83 8.38a169.44 169.44 0 017.63 5.203c.01.009.071.005.093.013.923.629 2.06.96 3.253.79 1.202-.172 2.205-.81 2.917-1.68.01-.007.049-.019.057-.025.025-.035.054-.066.08-.1l.01-.013a171.645 171.645 0 014.01-4.935c3.347-3.721 5.962-6.888 16.662-15.131a239.128 239.128 0 0011.144-9.117c4.033-3.25 8.045-6.959 12.18-11.316a62.586 62.586 0 009.558-13.132c6.396-10.493 9.086-22.844 7.387-35.298-1.374-10.085-5.517-19.252-12.003-26.74-.21-.244-.439-.479-.656-.718-.555-.615-1.09-1.242-1.677-1.833a9.358 9.358 0 00-.99-.84c-11.555-10.657-30.563-17.11-52.207-17.11-5.204 0-10.558.373-16 1.15m.114-.017" fill="url(#a)" transform="matrix(1 0 0 -1 0 225.081)"/><path d="M445.28 152.036V134.91h-73.548v-14.378h69.908v-18.128h-69.908V88.027h69.908V69.898h-69.908V55.522h73.548V38.395h-23.437V24.243h-18.685l-4.334 14.152H323.48l-4.335-14.152h-18.684v14.152h-23.437v17.127h73.548v14.376h-69.907v18.129h69.907v14.378h-69.907v18.128h69.907v14.378h-73.548v17.125h67.327c-16.072 18.184-44.27 26.848-67.327 26.944v18.816c21.799-.064 42.224-5.334 59.092-15.249 10.15-5.966 18.578-13.36 25.022-21.833 6.44 8.473 14.866 15.867 25.017 21.833 16.871 9.915 37.307 15.185 59.125 15.25V178.98c-23.08-.096-51.307-8.76-67.372-26.944h67.372zm46.773-106.599h131.28v129.087a4.655 4.655 0 01-4.648 4.65H492.053V45.437zm-18.432 152.168h147.76c11.258 0 20.387-9.126 20.387-20.386V27.004H473.62v170.6z" fill="#000"/><path d="M597.356 56.928h-19.484v15.373h-72.175v17.73H537.4c-5.489 37.01-21.073 67.75-25.203 75.392h22.312c7.063-14.728 18.585-42.685 22.927-75.391h20.437v37.317c0 13.042-1.32 25.775-3.833 38.074h19.54a193.27 193.27 0 003.777-38.074V90.032h13.195V72.3h-13.195V56.928zm91.374 57.432l.003-23.636h63.558c.068 8.11.888 16.014 2.447 23.636H688.73zm121.9-68.88v21.53c0 3.368-6.07 6.098-9.405 6.098h-112.49l.002-27.627H810.63zm-38.901 45.244h33.515c11.23 0 25.21-9.188 25.21-20.522V27.864h-160.37V193.85l18.636.006v-.004h16.57c14.76 0 29.07-1.998 42.71-5.575v-19.123a152.69 152.69 0 01-42.71 6.063v.002h-16.565l.004-43.24h71.198c5.917 15.604 15.076 29.58 27.353 40.935 12.965 11.991 28.684 20.716 45.97 25.743v-20.409c-12.267-4.33-23.406-10.943-32.771-19.604-8.314-7.69-14.79-16.693-19.552-26.666h52.323V114.36h-58.574a103.369 103.369 0 01-2.947-23.636m227.551 51.961h-72.633v-21.604h72.634v21.604zm-3.542 38.857h-69.09V159.94h72.633v18.059a3.544 3.544 0 01-3.543 3.544M907.4 89.802h45.523l-3.79 14.397h-41.715v94.225h94.83c8.985 0 16.269-7.282 16.269-16.268v-77.957H969.01l3.789-14.397h45.717V72.185H907.399v17.617zM882.184 67.65c-6.91 14.048-18.522 29.176-26.926 34.93v25.334c4.084-2.486 7.984-5.447 11.773-8.656v79.522h18.791v-93.338h-5.098c9.068-10.776 16.971-23.576 23.414-37.793h-21.954zm65.953-36.89v-7.84h-21.33v7.84h-68.025v32.978h19.467v-14.68h123.611v14.68h19.467V30.76z" fill="#000"/></g></svg>